<?xml version="1.0" encoding="UTF-8" standalone="no"?>
<svg
   width="16"
   height="16"
   viewBox="0 0 16 16"
   fill="none"
   version="1.1"
   id="svg6"
   sodipodi:docname="dropArrow.svg"
   inkscape:version="1.1.2 (08b2f3d93c, 2022-04-05)"
   xmlns:inkscape="http://www.inkscape.org/namespaces/inkscape"
   xmlns:sodipodi="http://sodipodi.sourceforge.net/DTD/sodipodi-0.dtd"
   xmlns="http://www.w3.org/2000/svg"
   xmlns:svg="http://www.w3.org/2000/svg">
  <defs
     id="defs10" />
  <sodipodi:namedview
     id="namedview8"
     pagecolor="#505050"
     bordercolor="#eeeeee"
     borderopacity="1"
     inkscape:pageshadow="0"
     inkscape:pageopacity="0"
     inkscape:pagecheckerboard="0"
     showgrid="false"
     inkscape:zoom="52.75"
     inkscape:cx="7.9905213"
     inkscape:cy="8.0094787"
     inkscape:window-width="1920"
     inkscape:window-height="1016"
     inkscape:window-x="0"
     inkscape:window-y="0"
     inkscape:window-maximized="1"
     inkscape:current-layer="svg6" />
  <path
     style="color:#AFB3BB;fill:#AFB3BB;stroke-linecap:round;stroke-linejoin:round;-inkscape-stroke:none"
     d="m 3,5 a 1,1 0 0 0 -0.7070312,0.2929687 1,1 0 0 0 0,1.4140625 l 4.9999999,4.9999998 a 1,1 0 0 0 1.4140626,0 1,1 0 0 0 0,-1.414062 l -5,-5.0000003 A 1,1 0 0 0 3,5 Z"
     id="path2" />
  <path
     style="color:#AFB3BB;fill:#AFB3BB;stroke-linecap:round;stroke-linejoin:round;-inkscape-stroke:none"
     d="M 13,5 A 1,1 0 0 0 12.292969,5.2929687 L 7.2929687,10.292969 a 1,1 0 0 0 0,1.414062 1,1 0 0 0 1.4140626,0 L 13.707031,6.7070312 a 1,1 0 0 0 0,-1.4140625 A 1,1 0 0 0 13,5 Z"
     id="path4" />
</svg>
